<svg width="26" height="24" viewBox="0 0 26 24" fill="none" xmlns="http://www.w3.org/2000/svg">
<path d="M25.4568 11.6662C25.228 11.3531 19.7746 4 12.8097 4C5.8448 4 0.391201 11.3531 0.162575 11.6659C-0.0541917 11.9629 -0.0541917 12.3658 0.162575 12.6628C0.391201 12.9759 5.8448 20.329 12.8097 20.329C19.7746 20.329 25.228 12.9759 25.4568 12.6631C25.6739 12.3661 25.6739 11.9629 25.4568 11.6662ZM12.8097 18.6398C7.67931 18.6398 3.23584 13.7594 1.92048 12.1639C3.23414 10.5671 7.6683 5.6892 12.8097 5.6892C17.9398 5.6892 22.383 10.5688 23.6989 12.1651C22.3853 13.7619 17.9511 18.6398 12.8097 18.6398Z" fill="#AAAAAA"/>
<path d="M12.8098 7.09766C10.0156 7.09766 7.74219 9.37105 7.74219 12.1653C7.74219 14.9596 10.0156 17.233 12.8098 17.233C15.6041 17.233 17.8775 14.9596 17.8775 12.1653C17.8775 9.37105 15.6041 7.09766 12.8098 7.09766ZM12.8098 15.5437C10.9469 15.5437 9.43144 14.0282 9.43144 12.1653C9.43144 10.3024 10.947 8.7869 12.8098 8.7869C14.6727 8.7869 16.1882 10.3024 16.1882 12.1653C16.1882 14.0282 14.6728 15.5437 12.8098 15.5437Z" fill="#AAAAAA"/>
<path d="M25.4568 11.6662C25.228 11.3531 19.7746 4 12.8097 4C5.8448 4 0.391201 11.3531 0.162575 11.6659C-0.0541917 11.9629 -0.0541917 12.3658 0.162575 12.6628C0.391201 12.9759 5.8448 20.329 12.8097 20.329C19.7746 20.329 25.228 12.9759 25.4568 12.6631C25.6739 12.3661 25.6739 11.9629 25.4568 11.6662ZM12.8097 18.6398C7.67931 18.6398 3.23584 13.7594 1.92048 12.1639C3.23414 10.5671 7.6683 5.6892 12.8097 5.6892C17.9398 5.6892 22.383 10.5688 23.6989 12.1651C22.3853 13.7619 17.9511 18.6398 12.8097 18.6398Z" fill="#AAAAAA"/>
<path d="M13.0676 7C10.2734 7 8 9.2734 8 12.0676C8 14.8619 10.2734 17.1353 13.0676 17.1353C15.8619 17.1353 18.1353 14.8619 18.1353 12.0676C18.1353 9.2734 15.8619 7 13.0676 7ZM13.0676 15.446C11.2047 15.446 9.68925 13.9305 9.68925 12.0676C9.68925 10.2048 11.2048 8.68925 13.0676 8.68925C14.9305 8.68925 16.446 10.2048 16.446 12.0676C16.446 13.9305 14.9306 15.446 13.0676 15.446Z" fill="#AAAAAA"/>
</svg>
