<svg width="538" height="239" viewBox="0 0 538 239" fill="none" xmlns="http://www.w3.org/2000/svg">
<path d="M110.479 223.186C110.479 223.186 110.498 223.158 110.511 223.145C110.424 223.246 110.363 223.32 110.326 223.371C110.377 223.311 110.428 223.256 110.474 223.195C110.474 223.195 110.474 223.191 110.479 223.186Z" fill="black"/>
<path d="M35.3094 217.453C35.3094 217.453 35.2909 217.48 35.277 217.494C35.3649 217.393 35.4251 217.318 35.4621 217.268C35.4112 217.328 35.3603 217.383 35.314 217.443C35.314 217.443 35.314 217.448 35.3094 217.453Z" fill="black"/>
<path d="M72.8919 0C16.8629 0 -18.1558 60.6522 9.86099 109.175L72.8919 218.35L135.923 109.175C163.935 60.6522 128.921 0 72.8919 0ZM72.8919 134.508C38.6692 134.508 10.9254 106.764 10.9254 72.5411C10.9254 38.3184 38.6692 10.5746 72.8919 10.5746C107.115 10.5746 134.858 38.3184 134.858 72.5411C134.858 106.764 107.115 134.508 72.8919 134.508Z" fill="white"/>
<path d="M107.883 209.21C102.01 206.053 95.3322 204.401 88.7607 203.425L86.0858 208.057C86.1692 208.067 86.2478 208.08 86.3311 208.09C90.8571 208.714 95.36 209.649 99.6916 211.116C100.705 211.459 101.709 211.834 102.7 212.245C104.375 212.972 106.009 213.805 107.527 214.823C107.823 215.022 108.114 215.23 108.406 215.443C108.471 215.494 108.545 215.55 108.609 215.605C108.771 215.735 108.929 215.874 109.081 216.008C109.614 216.485 110.067 217.012 110.544 217.54C110.567 217.572 110.59 217.604 110.613 217.637C110.72 217.79 110.817 217.942 110.914 218.1C111.053 218.326 111.178 218.562 111.289 218.803C111.414 219.146 111.511 219.493 111.581 219.854C111.594 220.006 111.599 220.164 111.599 220.321C111.599 220.478 111.59 220.631 111.581 220.788C111.511 221.145 111.414 221.492 111.289 221.834C111.071 222.292 110.808 222.732 110.507 223.149C110.539 223.107 110.576 223.065 110.623 223.014C110.572 223.075 110.525 223.135 110.479 223.195C110.465 223.213 110.451 223.232 110.437 223.255C110.34 223.389 110.16 223.584 110.322 223.38C110.248 223.463 110.178 223.547 110.104 223.63C109.85 223.912 109.581 224.176 109.304 224.435C109.021 224.694 108.73 224.944 108.429 225.185C108.401 225.208 108.373 225.226 108.35 225.245C108.17 225.379 107.989 225.509 107.809 225.634C107.05 226.161 106.254 226.638 105.444 227.078C104.551 227.559 103.635 227.999 102.704 228.401C98.7059 230.058 94.4807 231.155 90.2324 231.932C88.9505 232.168 87.6639 232.372 86.3728 232.552C79.3015 233.473 72.1237 233.64 65.0154 233.122C63.1596 232.987 61.3085 232.798 59.462 232.557C54.936 231.932 50.4331 230.997 46.1015 229.53C45.088 229.188 44.0837 228.813 43.0934 228.401C41.4181 227.675 39.7845 226.842 38.2666 225.823C37.9704 225.624 37.6788 225.416 37.3873 225.203C37.3225 225.152 37.2484 225.097 37.1837 225.041C37.0217 224.912 36.8643 224.773 36.7116 224.639C36.1794 224.162 35.7259 223.635 35.2492 223.107C35.2261 223.075 35.2029 223.042 35.1798 223.01C35.0734 222.857 34.9762 222.704 34.879 222.547C34.7402 222.32 34.6152 222.084 34.5042 221.844C34.3792 221.501 34.282 221.154 34.2126 220.798C34.1895 220.483 34.1895 220.173 34.2126 219.858C34.282 219.502 34.3792 219.155 34.5042 218.817C34.7217 218.359 34.9854 217.919 35.2862 217.503C35.2539 217.544 35.2168 217.586 35.1706 217.637C35.2215 217.577 35.2677 217.517 35.314 217.456C35.3279 217.438 35.3418 217.419 35.3557 217.396C35.4529 217.262 35.6333 217.068 35.4714 217.271C35.5454 217.188 35.6148 217.105 35.6889 217.021C35.9434 216.739 36.2118 216.475 36.4895 216.216C36.7718 215.957 37.0633 215.707 37.3641 215.466C37.3919 215.443 37.4197 215.425 37.4428 215.406C37.6233 215.272 37.8038 215.142 37.9843 215.018C38.7432 214.49 39.5392 214.013 40.3491 213.574C41.2423 213.092 42.1586 212.653 43.0888 212.25C47.0872 210.593 51.3124 209.497 55.5607 208.719C56.8426 208.483 58.1292 208.279 59.4203 208.099C59.5175 208.085 59.6101 208.076 59.7073 208.062L57.0324 203.425C51.0903 204.323 45.2083 205.776 39.7428 208.298C37.2762 209.436 34.8883 210.866 32.8983 212.731C31.2739 214.254 29.83 216.267 29.395 218.488C28.9369 220.835 29.3858 223.2 30.6677 225.222C32.0514 227.406 34.0876 229.095 36.2535 230.465C38.8728 232.122 41.793 233.33 44.7178 234.325C48.1377 235.486 51.6687 236.31 55.2229 236.921C63.789 238.393 72.5587 238.749 81.222 238.078C88.7746 237.49 96.4892 236.245 103.556 233.413C108.489 231.437 113.978 228.572 116.046 223.348C116.407 222.441 116.583 221.441 116.602 220.464C116.602 220.418 116.602 220.367 116.602 220.321C116.579 215.142 112.062 211.454 107.888 209.21H107.883ZM108.346 215.402C108.179 215.277 108.23 215.314 108.346 215.402V215.402ZM37.4382 225.24C37.5539 225.328 37.6048 225.365 37.4382 225.24V225.24Z" fill="white"/>
<path d="M108.915 59.7821H85.2343V36.1016C85.2343 35.4167 84.679 34.8613 83.9941 34.8613H61.7944C61.1095 34.8613 60.5541 35.4167 60.5541 36.1016V59.7821H36.8736C36.1887 59.7821 35.6333 60.3375 35.6333 61.0224V83.2221C35.6333 83.907 36.1887 84.4623 36.8736 84.4623H60.5541V108.143C60.5541 108.828 61.1095 109.383 61.7944 109.383H83.9941C84.679 109.383 85.2343 108.828 85.2343 108.143V84.4623H108.915C109.6 84.4623 110.155 83.907 110.155 83.2221V61.0224C110.155 60.3375 109.6 59.7821 108.915 59.7821Z" fill="white"/>
<path d="M238.04 114.4V154H225.74V114.4H238.04ZM212.9 114.4V154H200.66V114.4H212.9ZM232.46 129.46V138.64H206.6V129.46H232.46ZM263.727 113.8C267.847 113.8 271.367 114.62 274.287 116.26C277.247 117.86 279.507 120.18 281.067 123.22C282.667 126.26 283.467 129.92 283.467 134.2C283.467 138.48 282.667 142.14 281.067 145.18C279.507 148.22 277.247 150.56 274.287 152.2C271.367 153.8 267.847 154.6 263.727 154.6C259.647 154.6 256.107 153.8 253.107 152.2C250.147 150.56 247.867 148.22 246.267 145.18C244.667 142.14 243.867 138.48 243.867 134.2C243.867 129.92 244.667 126.26 246.267 123.22C247.867 120.18 250.147 117.86 253.107 116.26C256.107 114.62 259.647 113.8 263.727 113.8ZM263.727 123.16C262.087 123.16 260.727 123.58 259.647 124.42C258.607 125.22 257.807 126.42 257.247 128.02C256.727 129.62 256.467 131.68 256.467 134.2C256.467 136.68 256.727 138.74 257.247 140.38C257.807 141.98 258.607 143.2 259.647 144.04C260.727 144.84 262.087 145.24 263.727 145.24C265.327 145.24 266.667 144.84 267.747 144.04C268.827 143.2 269.627 141.98 270.147 140.38C270.667 138.74 270.927 136.68 270.927 134.2C270.927 131.68 270.667 129.62 270.147 128.02C269.627 126.42 268.827 125.22 267.747 124.42C266.667 123.58 265.327 123.16 263.727 123.16ZM305.342 113.8C309.102 113.8 312.442 114.32 315.362 115.36C318.282 116.36 320.842 117.9 323.042 119.98L317.702 127.84C315.902 126.32 313.982 125.14 311.942 124.3C309.942 123.42 307.722 122.98 305.282 122.98C304.042 122.98 303.042 123.1 302.282 123.34C301.522 123.58 300.962 123.92 300.602 124.36C300.282 124.76 300.122 125.22 300.122 125.74C300.122 126.38 300.502 126.9 301.262 127.3C302.062 127.7 303.162 128.06 304.562 128.38L310.562 129.76C314.562 130.68 317.542 132.04 319.502 133.84C321.462 135.6 322.442 138.02 322.442 141.1C322.442 144.1 321.682 146.6 320.162 148.6C318.682 150.6 316.642 152.1 314.042 153.1C311.442 154.1 308.502 154.6 305.222 154.6C302.622 154.6 300.082 154.34 297.602 153.82C295.162 153.3 292.922 152.56 290.882 151.6C288.842 150.6 287.082 149.42 285.602 148.06L290.882 139.96C291.962 141 293.282 141.94 294.842 142.78C296.402 143.58 298.062 144.22 299.822 144.7C301.582 145.18 303.282 145.42 304.922 145.42C306.082 145.42 307.022 145.32 307.742 145.12C308.502 144.88 309.042 144.56 309.362 144.16C309.682 143.76 309.842 143.28 309.842 142.72C309.842 142.04 309.582 141.5 309.062 141.1C308.542 140.66 307.562 140.28 306.122 139.96L299.522 138.46C297.362 137.98 295.362 137.32 293.522 136.48C291.682 135.64 290.202 134.48 289.082 133C288.002 131.48 287.462 129.5 287.462 127.06C287.462 124.46 288.162 122.16 289.562 120.16C290.962 118.16 293.002 116.6 295.682 115.48C298.362 114.36 301.582 113.8 305.342 113.8ZM347.43 114.4C350.83 114.4 353.71 114.94 356.07 116.02C358.47 117.06 360.29 118.6 361.53 120.64C362.81 122.64 363.45 125.1 363.45 128.02C363.45 130.94 362.81 133.42 361.53 135.46C360.29 137.46 358.47 139 356.07 140.08C353.71 141.12 350.83 141.64 347.43 141.64H339.99V154H327.75V114.4H347.43ZM345.45 132.76C347.25 132.76 348.65 132.38 349.65 131.62C350.65 130.82 351.15 129.62 351.15 128.02C351.15 126.42 350.65 125.24 349.65 124.48C348.65 123.68 347.25 123.28 345.45 123.28H339.99V132.76H345.45ZM381.298 114.4V154H369.058V114.4H381.298ZM423.849 114.4V123.58H411.249V154H399.009V123.58H386.289V114.4H423.849ZM461.638 154H449.038L446.818 145.78H434.758L432.478 154H420.238L433.558 114.4H448.258L461.638 154ZM436.798 137.86H444.838L440.818 123.1L436.798 137.86ZM477.334 144.82H496.174V154H465.094V114.4H477.334V144.82Z" fill="white"/>
<path d="M220.34 173.4C223.74 173.4 226.62 173.94 228.98 175.02C231.38 176.06 233.2 177.6 234.44 179.64C235.72 181.64 236.36 184.1 236.36 187.02C236.36 189.94 235.72 192.42 234.44 194.46C233.2 196.46 231.38 198 228.98 199.08C226.62 200.12 223.74 200.64 220.34 200.64H212.9V213H200.66V173.4H220.34ZM218.36 191.76C220.16 191.76 221.56 191.38 222.56 190.62C223.56 189.82 224.06 188.62 224.06 187.02C224.06 185.42 223.56 184.24 222.56 183.48C221.56 182.68 220.16 182.28 218.36 182.28H212.9V191.76H218.36ZM275.075 213H262.475L260.255 204.78H248.195L245.915 213H233.675L246.995 173.4H261.695L275.075 213ZM250.235 196.86H258.275L254.255 182.1L250.235 196.86ZM298.811 173.4C303.731 173.4 307.531 174.54 310.211 176.82C312.931 179.06 314.291 182.06 314.291 185.82C314.291 190.02 312.971 193.2 310.331 195.36C307.691 197.52 303.891 198.6 298.931 198.6L297.731 199.26H290.531V213H278.531V173.4H298.811ZM296.831 190.92C298.551 190.92 299.831 190.6 300.671 189.96C301.551 189.28 301.991 188.18 301.991 186.66C301.991 185.14 301.551 184.04 300.671 183.36C299.831 182.68 298.551 182.34 296.831 182.34H290.531V190.92H296.831ZM304.091 193.5L316.571 213H303.191L293.531 195.66L304.091 193.5ZM355.47 173.4V182.58H342.87V213H330.63V182.58H317.91V173.4H355.47ZM397.824 173.4V213H384.384L373.584 193.38L371.064 188.04H370.944L371.184 195.84V213H360.504V173.4H373.884L384.684 193.02L387.264 198.36H387.324L387.084 190.56V173.4H397.824ZM405.152 213V173.4H437.072V182.58H417.392V189H433.112V197.52H417.392V203.82H437.852V213H405.152ZM463.108 173.4C468.028 173.4 471.828 174.54 474.508 176.82C477.228 179.06 478.588 182.06 478.588 185.82C478.588 190.02 477.268 193.2 474.628 195.36C471.988 197.52 468.188 198.6 463.228 198.6L462.028 199.26H454.828V213H442.828V173.4H463.108ZM461.128 190.92C462.848 190.92 464.128 190.6 464.968 189.96C465.848 189.28 466.288 188.18 466.288 186.66C466.288 185.14 465.848 184.04 464.968 183.36C464.128 182.68 462.848 182.34 461.128 182.34H454.828V190.92H461.128ZM468.388 193.5L480.868 213H467.488L457.828 195.66L468.388 193.5ZM490.131 171.84C491.811 171.84 493.171 172.22 494.211 172.98C495.291 173.7 496.071 174.66 496.551 175.86C497.071 177.06 497.331 178.34 497.331 179.7C497.331 181.7 496.891 183.6 496.011 185.4C495.131 187.2 493.991 188.76 492.591 190.08C491.231 191.4 489.811 192.36 488.331 192.96L483.651 189.66C484.731 189.18 485.771 188.6 486.771 187.92C487.771 187.24 488.651 186.5 489.411 185.7C490.211 184.9 490.811 184.08 491.211 183.24L490.911 183C490.671 183.16 490.371 183.3 490.011 183.42C489.691 183.5 489.251 183.54 488.691 183.54C487.891 183.54 487.091 183.34 486.291 182.94C485.491 182.54 484.811 181.96 484.251 181.2C483.691 180.4 483.411 179.4 483.411 178.2C483.411 176.72 483.731 175.52 484.371 174.6C485.011 173.68 485.851 173 486.891 172.56C487.931 172.08 489.011 171.84 490.131 171.84ZM518.858 172.8C522.618 172.8 525.958 173.32 528.878 174.36C531.798 175.36 534.358 176.9 536.558 178.98L531.218 186.84C529.418 185.32 527.498 184.14 525.458 183.3C523.458 182.42 521.238 181.98 518.798 181.98C517.558 181.98 516.558 182.1 515.798 182.34C515.038 182.58 514.478 182.92 514.118 183.36C513.798 183.76 513.638 184.22 513.638 184.74C513.638 185.38 514.018 185.9 514.778 186.3C515.578 186.7 516.678 187.06 518.078 187.38L524.078 188.76C528.078 189.68 531.058 191.04 533.018 192.84C534.978 194.6 535.958 197.02 535.958 200.1C535.958 203.1 535.198 205.6 533.678 207.6C532.198 209.6 530.158 211.1 527.558 212.1C524.958 213.1 522.018 213.6 518.738 213.6C516.138 213.6 513.598 213.34 511.118 212.82C508.678 212.3 506.438 211.56 504.398 210.6C502.358 209.6 500.598 208.42 499.118 207.06L504.398 198.96C505.478 200 506.798 200.94 508.358 201.78C509.918 202.58 511.578 203.22 513.338 203.7C515.098 204.18 516.798 204.42 518.438 204.42C519.598 204.42 520.538 204.32 521.258 204.12C522.018 203.88 522.558 203.56 522.878 203.16C523.198 202.76 523.358 202.28 523.358 201.72C523.358 201.04 523.098 200.5 522.578 200.1C522.058 199.66 521.078 199.28 519.638 198.96L513.038 197.46C510.878 196.98 508.878 196.32 507.038 195.48C505.198 194.64 503.718 193.48 502.598 192C501.518 190.48 500.978 188.5 500.978 186.06C500.978 183.46 501.678 181.16 503.078 179.16C504.478 177.16 506.518 175.6 509.198 174.48C511.878 173.36 515.098 172.8 518.858 172.8Z" fill="white"/>
</svg>
