<svg width="25" height="28" viewBox="0 0 25 28" fill="none" xmlns="http://www.w3.org/2000/svg">
<path d="M12.732 9.034C12.42 9.034 12.156 8.926 11.94 8.71C11.724 8.494 11.616 8.23 11.616 7.918C11.616 7.606 11.724 7.342 11.94 7.126C12.156 6.91 12.42 6.802 12.732 6.802C13.032 6.802 13.284 6.91 13.488 7.126C13.704 7.342 13.812 7.606 13.812 7.918C13.812 8.23 13.704 8.494 13.488 8.71C13.284 8.926 13.032 9.034 12.732 9.034ZM13.524 10.636V20.5H11.886V10.636H13.524Z" fill="#E01F26"/>
<rect x="0.5" y="1.5" width="24" height="24" rx="12" stroke="#E01F26"/>
</svg>
