<svg width="197" height="155" viewBox="0 0 197 155" fill="none" xmlns="http://www.w3.org/2000/svg">
<g opacity="0.6" filter="url(#filter0_d_365_33516)">
<mask id="path-1-inside-1_365_33516" fill="white">
<path d="M5 42C5 -13.2285 49.7715 -58 105 -58H109C164.228 -58 209 -13.2285 209 42V46C209 101.228 164.228 146 109 146H105C49.7715 146 5 101.228 5 46V42Z"/>
</mask>
<path d="M5 42C5 -13.2285 49.7715 -58 105 -58H109C164.228 -58 209 -13.2285 209 42V46C209 101.228 164.228 146 109 146H105C49.7715 146 5 101.228 5 46V42Z" fill="url(#paint0_linear_365_33516)"/>
<path d="M3.95934 42C3.95934 -13.8032 49.1968 -59.0407 105 -59.0407H107.959C163.763 -59.0407 209 -13.8032 209 42C209 -12.6537 164.228 -56.9593 109 -56.9593H105C50.3463 -56.9593 6.04066 -12.6537 6.04066 42H3.95934ZM209 46C209 101.803 163.763 147.041 107.959 147.041H105C49.1968 147.041 3.95934 101.803 3.95934 46H6.04066C6.04066 100.654 50.3463 144.959 105 144.959H109C164.228 144.959 209 100.654 209 46ZM105 147.041C49.1968 147.041 3.95934 101.803 3.95934 46V42C3.95934 -13.8032 49.1968 -59.0407 105 -59.0407V-56.9593C50.3463 -56.9593 6.04066 -12.6537 6.04066 42V46C6.04066 100.654 50.3463 144.959 105 144.959V147.041ZM209 -58V146V-58Z" fill="#EF444A" mask="url(#path-1-inside-1_365_33516)"/>
</g>
<path d="M77.1656 82.0685C76.6716 82.5008 76.0849 82.7169 75.4056 82.7169C74.6954 82.7169 74.1087 82.5008 73.6764 82.0685C73.2132 81.6362 72.9971 81.0804 72.9971 80.4011C72.9971 79.7217 73.2132 79.1659 73.6764 78.7028C74.1395 78.2396 74.7262 78.0234 75.4056 78.0234C76.1158 78.0234 76.7025 78.2396 77.1656 78.7028C77.6597 79.1659 77.8758 79.7217 77.8758 80.4011C77.8758 81.0495 77.6288 81.6362 77.1656 82.0685ZM73.1823 96.9827V84.3535H77.5053V96.9827H73.1823Z" fill="white"/>
<path d="M89.2079 87.6885H86.0892V96.9829H81.7662V87.6885H79.6665V84.3537H81.7353V83.9832C81.7353 82.2849 82.1676 80.9571 83.0322 80.0307C83.8968 79.1044 85.1628 78.6104 86.7994 78.6104C87.3552 78.6104 87.911 78.6721 88.4359 78.7647C88.9609 78.8574 89.3623 78.95 89.5784 79.0735L89.9798 79.2279L88.6212 82.3466C88.3742 82.2231 88.0345 82.1613 87.5404 82.1613C87.0773 82.1613 86.7067 82.3157 86.4288 82.5936C86.1509 82.8715 86.0274 83.273 86.0274 83.7053V84.3228H89.1461V87.6885H89.2079Z" fill="white"/>
<path d="M100.417 92.9996L101.899 95.8095C101.775 95.933 101.59 96.0874 101.343 96.2418C101.096 96.4271 100.571 96.6432 99.7066 96.9211C98.8421 97.199 97.9774 97.3534 96.9893 97.3534C94.8587 97.3534 93.1913 96.705 91.9253 95.439C90.6593 94.173 90.0417 92.5673 90.0417 90.6529C90.0417 88.7384 90.6284 87.1636 91.8327 85.9285C93.0369 84.6625 94.5809 84.0449 96.4644 84.0449C98.3171 84.0449 99.7993 84.6007 100.88 85.7432C101.961 86.8548 102.486 88.3988 102.486 90.3441L102.455 91.5483H94.2103C94.4265 93.1849 95.4454 93.9877 97.2673 93.9877C97.8231 93.9877 98.348 93.8951 98.8729 93.7407C99.3979 93.5863 99.7684 93.4319 100.015 93.2466L100.417 92.9996ZM96.3718 87.1636C95.2602 87.1636 94.55 87.8429 94.303 89.1707H98.348C98.3171 88.5531 98.1319 88.0591 97.7922 87.6886C97.4525 87.3489 96.9893 87.1636 96.3718 87.1636Z" fill="white"/>
<path d="M117.06 92.7513L119.561 96.0861C119.5 96.1479 119.407 96.2405 119.314 96.3331C119.222 96.4258 118.975 96.611 118.604 96.8889C118.234 97.136 117.832 97.383 117.4 97.5683C116.968 97.7535 116.381 97.9388 115.671 98.0932C114.961 98.2476 114.189 98.3402 113.417 98.3402C110.607 98.3402 108.353 97.4447 106.654 95.6229C104.956 93.832 104.122 91.5779 104.122 88.8915C104.122 86.236 104.956 83.9819 106.654 82.1909C108.322 80.4 110.576 79.4736 113.417 79.4736C114.683 79.4736 115.825 79.6589 116.844 80.0294C117.863 80.4 118.573 80.7705 118.975 81.1411L119.561 81.6969L117.06 85.0317C116.968 84.9391 116.844 84.8156 116.659 84.6612C116.474 84.5068 116.072 84.3215 115.455 84.0745C114.837 83.8275 114.158 83.7039 113.448 83.7039C112.027 83.7039 110.854 84.198 109.958 85.1552C109.063 86.1124 108.6 87.3785 108.6 88.9532C108.6 90.528 109.063 91.7632 109.958 92.7513C110.854 93.7085 112.027 94.2025 113.448 94.2025C114.158 94.2025 114.837 94.079 115.424 93.8629C116.01 93.6467 116.443 93.3997 116.69 93.1836L117.06 92.7513Z" fill="white"/>
<path d="M132.623 90.1277V97.909H129.689L129.103 96.3651H128.979C128.269 97.6003 126.941 98.1869 125.027 98.1869C123.637 98.1869 122.557 97.8164 121.723 97.0753C120.92 96.3343 120.519 95.377 120.519 94.2345C120.519 92.9068 121.013 91.8569 121.97 91.1467C122.927 90.4365 124.378 90.066 126.262 90.066C127.096 90.066 127.837 90.1586 128.516 90.3439V89.9425C128.516 89.3558 128.3 88.9544 127.837 88.7073C127.374 88.4603 126.694 88.3368 125.799 88.3368C125.274 88.3368 124.749 88.3986 124.224 88.5529C123.699 88.7073 123.298 88.8308 123.051 88.9852L122.618 89.2014L121.291 86.1444C121.445 86.0518 121.63 85.9592 121.908 85.8357C122.186 85.7122 122.773 85.5269 123.699 85.3107C124.625 85.0946 125.613 85.002 126.694 85.002C128.547 85.002 130.029 85.4651 131.079 86.3915C132.098 87.3178 132.623 88.5529 132.623 90.1277ZM128.485 93.4626V92.5362C127.991 92.351 127.435 92.2583 126.787 92.2583C126.077 92.2583 125.521 92.4127 125.119 92.6906C124.718 92.9685 124.533 93.3699 124.533 93.864C124.533 94.3272 124.687 94.6977 125.027 94.9756C125.366 95.2535 125.768 95.377 126.262 95.377C126.879 95.377 127.404 95.1918 127.837 94.8212C128.269 94.4816 128.485 94.0184 128.485 93.4626Z" fill="white"/>
<path d="M143.06 85.2793V88.9538H142.411C141.608 88.9538 140.96 89.2008 140.497 89.6949C140.003 90.1889 139.787 90.8991 139.787 91.7946V97.9085H135.464V85.2793H138.088L138.768 86.9776H138.953C139.663 85.8351 140.806 85.2793 142.442 85.2793H143.06Z" fill="white"/>
<path d="M152.941 86.4223H153.126V79.7217H157.449V97.909H154.639L153.96 96.2724H153.774C153.743 96.3342 153.712 96.3959 153.651 96.4886C153.589 96.5812 153.465 96.7047 153.249 96.9517C153.033 97.1679 152.817 97.3531 152.539 97.5384C152.292 97.7237 151.922 97.8781 151.458 98.0016C150.995 98.1251 150.501 98.2177 149.976 98.2177C148.278 98.2177 146.858 97.631 145.777 96.4268C144.665 95.2225 144.109 93.6478 144.109 91.6407C144.109 89.6645 144.665 88.0897 145.746 86.8545C146.827 85.6194 148.185 85.0019 149.822 85.0019C150.254 85.0019 150.686 85.0636 151.057 85.1562C151.428 85.2489 151.736 85.3724 151.952 85.5268C152.169 85.6812 152.354 85.8047 152.508 85.9591C152.663 86.1135 152.786 86.2061 152.848 86.3296L152.941 86.4223ZM152.694 93.8021C153.126 93.2463 153.342 92.5053 153.342 91.548C153.342 90.6217 153.126 89.8806 152.694 89.3248C152.261 88.769 151.644 88.522 150.903 88.522C150.162 88.522 149.575 88.7999 149.143 89.3557C148.71 89.9115 148.494 90.6526 148.494 91.548C148.494 92.4435 148.71 93.1846 149.173 93.7713C149.637 94.358 150.223 94.6359 150.933 94.6359C151.675 94.6359 152.261 94.358 152.694 93.8021Z" fill="white"/>
<path d="M52 78.7334V83.1799L65.432 96.5501H70.0329V92.3198L56.3229 78.7334H52Z" fill="white"/>
<path d="M70.0327 78.7643V87.9969C69.9709 87.9969 69.9401 87.9969 69.8783 87.9969C67.3154 87.9969 65.2466 85.928 65.2466 83.3651C65.2466 80.8022 67.3154 78.7334 69.8783 78.7334C69.9401 78.7643 69.9709 78.7643 70.0327 78.7643Z" fill="#FACB0A"/>
<path d="M56.6622 92.751C56.2917 94.8816 54.439 96.5181 52.1849 96.5181C52.1232 96.5181 52.0923 96.5181 52.0305 96.5181V92.751H56.6622Z" fill="#EB1E24"/>
<path d="M56.6622 91.1753H52.0305V87.4082C52.0923 87.4082 52.1232 87.4082 52.1849 87.4082C54.4081 87.4391 56.2917 89.0447 56.6622 91.1753Z" fill="#EB1E24"/>
<path d="M48.356 18.08C48.964 18.08 49.484 18.184 49.916 18.392C50.348 18.592 50.68 18.884 50.912 19.268C51.152 19.644 51.272 20.1 51.272 20.636C51.272 21.172 51.152 21.632 50.912 22.016C50.68 22.392 50.348 22.684 49.916 22.892C49.484 23.092 48.964 23.192 48.356 23.192H46.688V26H45.032V18.08H48.356ZM48.104 21.884C48.6 21.884 48.972 21.78 49.22 21.572C49.468 21.356 49.592 21.044 49.592 20.636C49.592 20.22 49.468 19.908 49.22 19.7C48.972 19.492 48.6 19.388 48.104 19.388H46.688V21.884H48.104ZM56.2818 18.08C57.1778 18.08 57.8818 18.296 58.3938 18.728C58.9058 19.16 59.1618 19.74 59.1618 20.468C59.1618 21.244 58.9058 21.84 58.3938 22.256C57.8818 22.664 57.1818 22.868 56.2938 22.868L56.1258 22.964H54.4218V26H52.7898V18.08H56.2818ZM56.0898 21.704C56.5538 21.704 56.8978 21.612 57.1218 21.428C57.3538 21.236 57.4698 20.944 57.4698 20.552C57.4698 20.16 57.3538 19.872 57.1218 19.688C56.8978 19.496 56.5538 19.4 56.0898 19.4H54.4218V21.704H56.0898ZM57.0618 22.052L59.6298 26H57.7698L55.6458 22.532L57.0618 22.052ZM60.9461 26V18.08H66.8861V19.412H62.6021V21.38H65.9741V22.652H62.6021V24.668H67.0541V26H60.9461ZM73.8638 24.668H78.0398V26H72.2078V18.08H73.8638V24.668ZM86.2908 26H84.5748L83.9148 24.068H80.8788L80.2188 26H78.5268L81.4188 18.08H83.3988L86.2908 26ZM81.2508 22.844H83.5428L82.3908 19.388L81.2508 22.844ZM93.7729 18.08V22.88C93.7729 23.96 93.4849 24.772 92.9089 25.316C92.3329 25.852 91.4929 26.12 90.3889 26.12C89.2849 26.12 88.4449 25.852 87.8689 25.316C87.2929 24.772 87.0049 23.96 87.0049 22.88V18.08H88.6609V22.808C88.6609 23.472 88.8009 23.964 89.0809 24.284C89.3689 24.604 89.8049 24.764 90.3889 24.764C90.9729 24.764 91.4049 24.604 91.6849 24.284C91.9649 23.964 92.1049 23.472 92.1049 22.808V18.08H93.7729ZM102.484 18.08V26H100.588L97.8164 21.344L97.1324 20.048H97.1204L97.1684 21.416V26H95.6804V18.08H97.5644L100.336 22.724L101.02 24.032H101.044L100.996 22.664V18.08H102.484ZM111.332 23.816C111.18 24.328 110.94 24.756 110.612 25.1C110.284 25.444 109.896 25.7 109.448 25.868C109 26.036 108.508 26.12 107.972 26.12C107.188 26.12 106.508 25.956 105.932 25.628C105.364 25.3 104.924 24.832 104.612 24.224C104.308 23.616 104.156 22.888 104.156 22.04C104.156 21.192 104.308 20.464 104.612 19.856C104.924 19.248 105.364 18.78 105.932 18.452C106.508 18.124 107.18 17.96 107.948 17.96C108.492 17.96 108.984 18.036 109.424 18.188C109.864 18.332 110.236 18.556 110.54 18.86C110.852 19.164 111.08 19.548 111.224 20.012L109.724 20.648C109.588 20.168 109.38 19.828 109.1 19.628C108.82 19.42 108.46 19.316 108.02 19.316C107.588 19.316 107.208 19.42 106.88 19.628C106.56 19.836 106.312 20.144 106.136 20.552C105.96 20.952 105.872 21.448 105.872 22.04C105.872 22.624 105.952 23.12 106.112 23.528C106.28 23.936 106.524 24.244 106.844 24.452C107.164 24.66 107.556 24.764 108.02 24.764C108.452 24.764 108.824 24.648 109.136 24.416C109.456 24.184 109.68 23.832 109.808 23.36L111.332 23.816ZM119.547 18.08V26H117.891V18.08H119.547ZM114.399 18.08V26H112.743V18.08H114.399ZM118.755 21.332V22.664H113.571V21.332H118.755ZM128.702 17.96C129.486 17.96 130.162 18.124 130.73 18.452C131.298 18.78 131.734 19.248 132.038 19.856C132.35 20.464 132.506 21.192 132.506 22.04C132.506 22.888 132.35 23.616 132.038 24.224C131.734 24.832 131.298 25.3 130.73 25.628C130.162 25.956 129.486 26.12 128.702 26.12C127.918 26.12 127.238 25.956 126.662 25.628C126.094 25.3 125.654 24.832 125.342 24.224C125.038 23.616 124.886 22.888 124.886 22.04C124.886 21.192 125.038 20.464 125.342 19.856C125.654 19.248 126.094 18.78 126.662 18.452C127.238 18.124 127.918 17.96 128.702 17.96ZM128.702 19.316C128.254 19.316 127.874 19.42 127.562 19.628C127.25 19.836 127.01 20.144 126.842 20.552C126.682 20.952 126.602 21.448 126.602 22.04C126.602 22.624 126.682 23.12 126.842 23.528C127.01 23.936 127.25 24.244 127.562 24.452C127.874 24.66 128.254 24.764 128.702 24.764C129.142 24.764 129.518 24.66 129.83 24.452C130.142 24.244 130.378 23.936 130.538 23.528C130.706 23.12 130.79 22.624 130.79 22.04C130.79 21.448 130.706 20.952 130.538 20.552C130.378 20.144 130.142 19.836 129.83 19.628C129.518 19.42 129.142 19.316 128.702 19.316ZM140.105 19.412H135.833V21.428H139.205V22.76H135.833V26H134.177V18.08H140.105V19.412ZM147.452 19.412H143.18V21.428H146.552V22.76H143.18V26H141.524V18.08H147.452V19.412ZM148.872 26V18.08H154.812V19.412H150.528V21.38H153.9V22.652H150.528V24.668H154.98V26H148.872ZM159.958 18.08C160.854 18.08 161.558 18.296 162.07 18.728C162.582 19.16 162.838 19.74 162.838 20.468C162.838 21.244 162.582 21.84 162.07 22.256C161.558 22.664 160.858 22.868 159.97 22.868L159.802 22.964H158.098V26H156.466V18.08H159.958ZM159.766 21.704C160.23 21.704 160.574 21.612 160.798 21.428C161.03 21.236 161.146 20.944 161.146 20.552C161.146 20.16 161.03 19.872 160.798 19.688C160.574 19.496 160.23 19.4 159.766 19.4H158.098V21.704H159.766ZM160.738 22.052L163.306 26H161.446L159.322 22.532L160.738 22.052Z" fill="white"/>
<path d="M35.2987 52.1163C33.729 52.1163 32.3307 51.7735 31.1038 51.0879C29.877 50.4023 28.9117 49.3739 28.208 48.0026C27.5044 46.6314 27.1525 44.9534 27.1525 42.9688C27.1525 41.0202 27.5134 39.3603 28.2351 37.989C28.9748 36.5997 30.0303 35.5443 31.4015 34.8226C32.7728 34.0828 34.3966 33.7129 36.273 33.7129C38.384 33.7129 40.08 34.0918 41.361 34.8496C42.6601 35.6074 43.6615 36.8072 44.3651 38.4491L39.223 40.3706C39.0426 39.4866 38.6998 38.8641 38.1946 38.5032C37.6894 38.1243 37.0579 37.9349 36.3001 37.9349C35.5243 37.9349 34.8747 38.1243 34.3515 38.5032C33.8463 38.8641 33.4674 39.4144 33.2148 40.1541C32.9622 40.8939 32.8359 41.814 32.8359 42.9146C32.8359 44.1054 32.9713 45.0797 33.2419 45.8375C33.5306 46.5953 33.9636 47.1546 34.541 47.5155C35.1183 47.8583 35.831 48.0297 36.679 48.0297C37.112 48.0297 37.509 47.9846 37.8698 47.8944C38.2307 47.7861 38.5464 47.6328 38.817 47.4343C39.1057 47.2358 39.3222 46.9923 39.4666 46.7036C39.6109 46.3969 39.6831 46.045 39.6831 45.6481V45.5128H36.1648V41.9674H44.3381V51.8457H40.6303L40.1973 47.326L41.0633 48.1921C40.7386 49.4551 40.089 50.4294 39.1147 51.115C38.1404 51.7826 36.8684 52.1163 35.2987 52.1163ZM56.5081 33.9836C58.7273 33.9836 60.4414 34.4978 61.6502 35.5262C62.8771 36.5366 63.4906 37.8898 63.4906 39.5858C63.4906 41.4803 62.8952 42.9146 61.7044 43.8889C60.5136 44.8632 58.7995 45.3504 56.5622 45.3504L56.021 45.6481H52.7733V51.8457H47.3605V33.9836H56.5081ZM55.615 41.8862C56.3908 41.8862 56.9682 41.7419 57.3471 41.4532C57.744 41.1465 57.9425 40.6503 57.9425 39.9647C57.9425 39.2791 57.744 38.7829 57.3471 38.4762C56.9682 38.1694 56.3908 38.0161 55.615 38.0161H52.7733V41.8862H55.615ZM58.8897 43.05L64.519 51.8457H58.4838L54.1265 44.0243L58.8897 43.05ZM83.1996 51.8457H77.5162L76.5148 48.138H71.075L70.0466 51.8457H64.5256L70.5337 33.9836H77.1644L83.1996 51.8457ZM71.9952 44.5655H75.6217L73.8085 37.9078L71.9952 44.5655ZM84.7583 51.8457V33.9836H94.2577C96.495 34.0016 98.1459 34.4166 99.2104 35.2285C100.293 36.0224 100.834 37.2042 100.834 38.7739C100.834 39.8023 100.518 40.6864 99.887 41.4261C99.2735 42.1659 98.3083 42.635 96.9912 42.8334V42.8605C98.4526 43.0409 99.5352 43.51 100.239 44.2678C100.942 45.0256 101.294 45.9638 101.294 47.0825C101.294 48.6341 100.753 49.8159 99.6705 50.6278C98.606 51.4397 96.9912 51.8457 94.8261 51.8457H84.7583ZM90.0628 48.1109H93.5541C94.2577 48.1109 94.781 47.9756 95.1238 47.7049C95.4666 47.4163 95.638 47.0103 95.638 46.4871C95.638 45.9638 95.4666 45.5669 95.1238 45.2963C94.781 45.0256 94.2577 44.8903 93.5541 44.8903H90.0628V48.1109ZM90.0628 41.0743H93.1481C94.5013 41.0743 95.1779 40.542 95.1779 39.4775C95.1779 38.413 94.5013 37.8808 93.1481 37.8808H90.0628V41.0743ZM126.776 33.9836L120.524 45.5128V51.8457H114.976V45.5128L108.697 33.9836H114.299L116.464 38.4491L117.79 41.5614L119.089 38.4491L121.282 33.9836H126.776ZM135.459 33.7129C137.318 33.7129 138.905 34.0828 140.222 34.8226C141.558 35.5443 142.577 36.5907 143.281 37.962C144.002 39.3332 144.363 40.9841 144.363 42.9146C144.363 44.8452 144.002 46.4961 143.281 47.8673C142.577 49.2386 141.558 50.294 140.222 51.0338C138.905 51.7555 137.318 52.1163 135.459 52.1163C133.619 52.1163 132.022 51.7555 130.669 51.0338C129.334 50.294 128.305 49.2386 127.584 47.8673C126.862 46.4961 126.501 44.8452 126.501 42.9146C126.501 40.9841 126.862 39.3332 127.584 37.962C128.305 36.5907 129.334 35.5443 130.669 34.8226C132.022 34.0828 133.619 33.7129 135.459 33.7129ZM135.459 37.9349C134.719 37.9349 134.106 38.1243 133.619 38.5032C133.15 38.8641 132.789 39.4054 132.536 40.1271C132.302 40.8488 132.185 41.778 132.185 42.9146C132.185 44.0333 132.302 44.9625 132.536 45.7022C132.789 46.4239 133.15 46.9742 133.619 47.3531C134.106 47.714 134.719 47.8944 135.459 47.8944C136.181 47.8944 136.785 47.714 137.273 47.3531C137.76 46.9742 138.121 46.4239 138.355 45.7022C138.59 44.9625 138.707 44.0333 138.707 42.9146C138.707 41.778 138.59 40.8488 138.355 40.1271C138.121 39.4054 137.76 38.8641 137.273 38.5032C136.785 38.1243 136.181 37.9349 135.459 37.9349ZM163.319 33.9836V44.349C163.319 46.9471 162.624 48.8957 161.235 50.1948C159.845 51.4758 157.771 52.1163 155.01 52.1163C152.232 52.1163 150.148 51.4758 148.758 50.1948C147.369 48.8957 146.674 46.9471 146.674 44.349V33.9836H152.223V44.6467C152.223 45.7293 152.457 46.5412 152.926 47.0825C153.395 47.6237 154.09 47.8944 155.01 47.8944C155.93 47.8944 156.625 47.6237 157.094 47.0825C157.563 46.5412 157.798 45.7293 157.798 44.6467V33.9836H163.319ZM175.415 33.9836C177.634 33.9836 179.348 34.4978 180.557 35.5262C181.784 36.5366 182.397 37.8898 182.397 39.5858C182.397 41.4803 181.802 42.9146 180.611 43.8889C179.42 44.8632 177.706 45.3504 175.469 45.3504L174.927 45.6481H171.68V51.8457H166.267V33.9836H175.415ZM174.521 41.8862C175.297 41.8862 175.875 41.7419 176.254 41.4532C176.65 41.1465 176.849 40.6503 176.849 39.9647C176.849 39.2791 176.65 38.7829 176.254 38.4762C175.875 38.1694 175.297 38.0161 174.521 38.0161H171.68V41.8862H174.521ZM177.796 43.05L183.425 51.8457H177.39L173.033 44.0243L177.796 43.05ZM31.5425 73.8457V55.9836H45.9404V60.1243H37.0635V63.0202H44.1542V66.8632H37.0635V69.7049H46.2923V73.8457H31.5425ZM65.4515 73.8457H58.7938L55.9792 68.7036L53.327 73.8457H47.0481L53.0563 64.9146L47.3458 55.9836H53.8682L56.4122 60.9092L58.9833 55.9836H64.9915L59.3081 64.7523L65.4515 73.8457ZM81.7182 68.5412C81.3934 69.8583 80.8431 70.9318 80.0673 71.7618C79.3095 72.5917 78.3803 73.1962 77.2797 73.5751C76.1972 73.9359 74.9973 74.1163 73.6802 74.1163C71.8399 74.1163 70.2431 73.7555 68.8899 73.0338C67.5548 72.294 66.5263 71.2386 65.8046 69.8673C65.0829 68.4961 64.7221 66.8452 64.7221 64.9146C64.7221 62.9841 65.0829 61.3332 65.8046 59.962C66.5263 58.5907 67.5548 57.5443 68.8899 56.8226C70.2431 56.0828 71.8309 55.7129 73.6532 55.7129C74.9522 55.7129 76.143 55.8934 77.2256 56.2542C78.3262 56.6151 79.2554 57.1744 80.0132 57.9322C80.7709 58.69 81.2852 59.6733 81.5558 60.8821L76.7655 62.8037C76.567 61.6489 76.2152 60.8821 75.71 60.5032C75.2229 60.1243 74.5914 59.9349 73.8155 59.9349C73.0938 59.9349 72.4714 60.1243 71.9481 60.5032C71.4429 60.8641 71.055 61.4144 70.7844 62.1541C70.5318 62.8758 70.4055 63.796 70.4055 64.9146C70.4055 66.0152 70.5228 66.9354 70.7573 67.6751C71.0099 68.4149 71.3888 68.9742 71.894 69.3531C72.4172 69.714 73.0938 69.8944 73.9238 69.8944C74.6635 69.8944 75.286 69.6779 75.7912 69.2449C76.2964 68.8118 76.6302 68.1352 76.7926 67.2151L81.7182 68.5412ZM89.2882 69.7049H97.7863V73.8457H83.7672V55.9836H89.2882V69.7049ZM116.314 55.9836V66.349C116.314 68.9471 115.619 70.8957 114.23 72.1948C112.841 73.4758 110.766 74.1163 108.005 74.1163C105.227 74.1163 103.143 73.4758 101.753 72.1948C100.364 70.8957 99.6695 68.9471 99.6695 66.349V55.9836H105.218V66.6467C105.218 67.7293 105.452 68.5412 105.921 69.0825C106.39 69.6237 107.085 69.8944 108.005 69.8944C108.925 69.8944 109.62 69.6237 110.089 69.0825C110.558 68.5412 110.793 67.7293 110.793 66.6467V55.9836H116.314ZM126.678 55.7129C128.374 55.7129 129.88 55.9475 131.197 56.4166C132.514 56.8677 133.669 57.5623 134.661 58.5005L132.253 62.0459C131.441 61.3603 130.575 60.828 129.655 60.4491C128.752 60.0522 127.751 59.8537 126.65 59.8537C126.091 59.8537 125.64 59.9078 125.297 60.0161C124.954 60.1243 124.702 60.2777 124.54 60.4762C124.395 60.6566 124.323 60.8641 124.323 61.0986C124.323 61.3873 124.494 61.6219 124.837 61.8023C125.198 61.9827 125.694 62.1451 126.326 62.2894L129.032 62.9119C130.836 63.3269 132.181 63.9403 133.065 64.7523C133.949 65.5461 134.391 66.6377 134.391 68.027C134.391 69.3802 134.048 70.5078 133.362 71.41C132.695 72.3121 131.775 72.9887 130.602 73.4397C129.429 73.8908 128.103 74.1163 126.623 74.1163C125.451 74.1163 124.305 73.9991 123.186 73.7645C122.086 73.53 121.075 73.1962 120.155 72.7631C119.235 72.3121 118.441 71.7798 117.774 71.1664L120.155 67.5128C120.642 67.9819 121.238 68.4059 121.941 68.7848C122.645 69.1456 123.394 69.4343 124.188 69.6508C124.982 69.8673 125.748 69.9756 126.488 69.9756C127.011 69.9756 127.435 69.9305 127.76 69.8403C128.103 69.732 128.346 69.5877 128.491 69.4072C128.635 69.2268 128.707 69.0103 128.707 68.7577C128.707 68.451 128.59 68.2074 128.356 68.027C128.121 67.8285 127.679 67.6571 127.029 67.5128L124.052 66.8362C123.078 66.6197 122.176 66.322 121.346 65.9431C120.516 65.5642 119.848 65.0409 119.343 64.3734C118.856 63.6877 118.613 62.7946 118.613 61.694C118.613 60.5213 118.928 59.4838 119.56 58.5817C120.191 57.6796 121.111 56.9759 122.32 56.4707C123.529 55.9655 124.982 55.7129 126.678 55.7129ZM142.306 55.9836V73.8457H136.785V55.9836H142.306ZM162.825 55.9836L156.654 73.8457H150.105L143.934 55.9836H149.699L152.568 66.2408L153.488 69.732L154.354 66.2949L157.25 55.9836H162.825ZM164.457 73.8457V55.9836H178.854V60.1243H169.978V63.0202H177.068V66.8632H169.978V69.7049H179.206V73.8457H164.457Z" fill="black"/>
<path d="M34.453 51.2706C32.8833 51.2706 31.485 50.9278 30.2581 50.2422C29.0313 49.5566 28.066 48.5282 27.3623 47.1569C26.6587 45.7857 26.3068 44.1077 26.3068 42.1231C26.3068 40.1745 26.6677 38.5146 27.3894 37.1433C28.1291 35.754 29.1846 34.6986 30.5558 33.9769C31.9271 33.2371 33.5509 32.8672 35.4273 32.8672C37.5383 32.8672 39.2343 33.2461 40.5153 34.0039C41.8144 34.7617 42.8158 35.9615 43.5194 37.6034L38.3773 39.5249C38.1969 38.6409 37.8541 38.0184 37.3489 37.6575C36.8437 37.2786 36.2122 37.0892 35.4544 37.0892C34.6786 37.0892 34.029 37.2786 33.5058 37.6575C33.0006 38.0184 32.6217 38.5687 32.3691 39.3084C32.1165 40.0482 31.9902 40.9683 31.9902 42.0689C31.9902 43.2597 32.1255 44.234 32.3962 44.9918C32.6849 45.7496 33.1179 46.3089 33.6953 46.6698C34.2726 47.0126 34.9853 47.184 35.8333 47.184C36.2663 47.184 36.6633 47.1389 37.0241 47.0487C37.385 46.9404 37.7007 46.7871 37.9713 46.5886C38.26 46.3901 38.4765 46.1466 38.6209 45.8579C38.7652 45.5511 38.8374 45.1993 38.8374 44.8024V44.6671H35.3191V41.1217H43.4924V51H39.7846L39.3516 46.4803L40.2176 47.3464C39.8929 48.6094 39.2433 49.5837 38.269 50.2693C37.2947 50.9369 36.0227 51.2706 34.453 51.2706ZM55.6624 33.1379C57.8816 33.1379 59.5957 33.6521 60.8045 34.6805C62.0314 35.6909 62.6449 37.0441 62.6449 38.7401C62.6449 40.6346 62.0495 42.0689 60.8587 43.0432C59.6679 44.0175 57.9538 44.5047 55.7165 44.5047L55.1753 44.8024H51.9276V51H46.5148V33.1379H55.6624ZM54.7693 41.0405C55.5451 41.0405 56.1225 40.8962 56.5014 40.6075C56.8983 40.3008 57.0968 39.8046 57.0968 39.119C57.0968 38.4334 56.8983 37.9372 56.5014 37.6305C56.1225 37.3237 55.5451 37.1704 54.7693 37.1704H51.9276V41.0405H54.7693ZM58.044 42.2043L63.6733 51H57.6381L53.2808 43.1786L58.044 42.2043ZM82.3539 51H76.6705L75.6691 47.2923H70.2293L69.2009 51H63.6799L69.688 33.1379H76.3187L82.3539 51ZM71.1495 43.7198H74.776L72.9628 37.0621L71.1495 43.7198ZM83.9126 51V33.1379H93.412C95.6493 33.1559 97.3002 33.5709 98.3647 34.3828C99.4472 35.1767 99.9885 36.3585 99.9885 37.9282C99.9885 38.9566 99.6728 39.8407 99.0413 40.5804C98.4278 41.3202 97.4626 41.7893 96.1455 41.9877V42.0148C97.6069 42.1952 98.6895 42.6643 99.3931 43.4221C100.097 44.1799 100.449 45.1181 100.449 46.2368C100.449 47.7884 99.9073 48.9702 98.8248 49.7821C97.7603 50.594 96.1455 51 93.9804 51H83.9126ZM89.2171 47.2652H92.7084C93.412 47.2652 93.9352 47.1299 94.2781 46.8592C94.6209 46.5706 94.7923 46.1646 94.7923 45.6414C94.7923 45.1181 94.6209 44.7212 94.2781 44.4506C93.9352 44.1799 93.412 44.0446 92.7084 44.0446H89.2171V47.2652ZM89.2171 40.2286H92.3024C93.6556 40.2286 94.3322 39.6963 94.3322 38.6318C94.3322 37.5673 93.6556 37.0351 92.3024 37.0351H89.2171V40.2286ZM125.93 33.1379L119.678 44.6671V51H114.13V44.6671L107.851 33.1379H113.453L115.619 37.6034L116.945 40.7157L118.244 37.6034L120.436 33.1379H125.93ZM134.614 32.8672C136.472 32.8672 138.06 33.2371 139.377 33.9769C140.712 34.6986 141.731 35.745 142.435 37.1163C143.157 38.4875 143.518 40.1384 143.518 42.0689C143.518 43.9995 143.157 45.6504 142.435 47.0216C141.731 48.3929 140.712 49.4483 139.377 50.1881C138.06 50.9098 136.472 51.2706 134.614 51.2706C132.773 51.2706 131.176 50.9098 129.823 50.1881C128.488 49.4483 127.46 48.3929 126.738 47.0216C126.016 45.6504 125.655 43.9995 125.655 42.0689C125.655 40.1384 126.016 38.4875 126.738 37.1163C127.46 35.745 128.488 34.6986 129.823 33.9769C131.176 33.2371 132.773 32.8672 134.614 32.8672ZM134.614 37.0892C133.874 37.0892 133.26 37.2786 132.773 37.6575C132.304 38.0184 131.943 38.5597 131.691 39.2814C131.456 40.0031 131.339 40.9323 131.339 42.0689C131.339 43.1876 131.456 44.1168 131.691 44.8565C131.943 45.5782 132.304 46.1285 132.773 46.5074C133.26 46.8683 133.874 47.0487 134.614 47.0487C135.335 47.0487 135.94 46.8683 136.427 46.5074C136.914 46.1285 137.275 45.5782 137.509 44.8565C137.744 44.1168 137.861 43.1876 137.861 42.0689C137.861 40.9323 137.744 40.0031 137.509 39.2814C137.275 38.5597 136.914 38.0184 136.427 37.6575C135.94 37.2786 135.335 37.0892 134.614 37.0892ZM162.473 33.1379V43.5033C162.473 46.1014 161.778 48.05 160.389 49.3491C159 50.6301 156.925 51.2706 154.164 51.2706C151.386 51.2706 149.302 50.6301 147.913 49.3491C146.523 48.05 145.829 46.1014 145.829 43.5033V33.1379H151.377V43.801C151.377 44.8836 151.611 45.6955 152.08 46.2368C152.55 46.778 153.244 47.0487 154.164 47.0487C155.085 47.0487 155.779 46.778 156.248 46.2368C156.717 45.6955 156.952 44.8836 156.952 43.801V33.1379H162.473ZM174.569 33.1379C176.788 33.1379 178.502 33.6521 179.711 34.6805C180.938 35.6909 181.551 37.0441 181.551 38.7401C181.551 40.6346 180.956 42.0689 179.765 43.0432C178.574 44.0175 176.86 44.5047 174.623 44.5047L174.082 44.8024H170.834V51H165.421V33.1379H174.569ZM173.676 41.0405C174.452 41.0405 175.029 40.8962 175.408 40.6075C175.805 40.3008 176.003 39.8046 176.003 39.119C176.003 38.4334 175.805 37.9372 175.408 37.6305C175.029 37.3237 174.452 37.1704 173.676 37.1704H170.834V41.0405H173.676ZM176.95 42.2043L182.58 51H176.544L172.187 43.1786L176.95 42.2043ZM30.6968 73V55.1379H45.0947V59.2786H36.2178V62.1745H43.3085V66.0175H36.2178V68.8592H45.4466V73H30.6968ZM64.6058 73H57.9481L55.1335 67.8579L52.4812 73H46.2024L52.2106 64.0689L46.5001 55.1379H53.0225L55.5665 60.0635L58.1376 55.1379H64.1458L58.4624 63.9066L64.6058 73ZM80.8725 67.6955C80.5477 69.0126 79.9974 70.0861 79.2216 70.9161C78.4638 71.746 77.5346 72.3505 76.434 72.7294C75.3515 73.0902 74.1516 73.2706 72.8345 73.2706C70.9942 73.2706 69.3974 72.9098 68.0442 72.1881C66.7091 71.4483 65.6806 70.3929 64.9589 69.0216C64.2372 67.6504 63.8764 65.9995 63.8764 64.0689C63.8764 62.1384 64.2372 60.4875 64.9589 59.1163C65.6806 57.745 66.7091 56.6986 68.0442 55.9769C69.3974 55.2371 70.9852 54.8672 72.8075 54.8672C74.1065 54.8672 75.2973 55.0477 76.3799 55.4085C77.4805 55.7694 78.4097 56.3287 79.1675 57.0865C79.9252 57.8443 80.4395 58.8276 80.7101 60.0364L75.9198 61.958C75.7213 60.8032 75.3695 60.0364 74.8643 59.6575C74.3772 59.2786 73.7457 59.0892 72.9698 59.0892C72.2481 59.0892 71.6257 59.2786 71.1024 59.6575C70.5972 60.0184 70.2093 60.5687 69.9387 61.3084C69.6861 62.0301 69.5598 62.9503 69.5598 64.0689C69.5598 65.1695 69.6771 66.0897 69.9116 66.8294C70.1642 67.5692 70.5431 68.1285 71.0483 68.5074C71.5715 68.8683 72.2481 69.0487 73.0781 69.0487C73.8178 69.0487 74.4403 68.8322 74.9455 68.3991C75.4507 67.9661 75.7845 67.2895 75.9469 66.3694L80.8725 67.6955ZM88.4425 68.8592H96.9406V73H82.9215V55.1379H88.4425V68.8592ZM115.468 55.1379V65.5033C115.468 68.1014 114.773 70.05 113.384 71.3491C111.995 72.6301 109.92 73.2706 107.159 73.2706C104.381 73.2706 102.297 72.6301 100.908 71.3491C99.5185 70.05 98.8238 68.1014 98.8238 65.5033V55.1379H104.372V65.801C104.372 66.8836 104.606 67.6955 105.076 68.2368C105.545 68.778 106.239 69.0487 107.159 69.0487C108.08 69.0487 108.774 68.778 109.243 68.2368C109.713 67.6955 109.947 66.8836 109.947 65.801V55.1379H115.468ZM125.832 54.8672C127.528 54.8672 129.034 55.1018 130.352 55.5709C131.669 56.022 132.823 56.7166 133.816 57.6548L131.407 61.2002C130.595 60.5146 129.729 59.9823 128.809 59.6034C127.907 59.2065 126.905 59.008 125.805 59.008C125.245 59.008 124.794 59.0621 124.452 59.1704C124.109 59.2786 123.856 59.432 123.694 59.6305C123.549 59.8109 123.477 60.0184 123.477 60.2529C123.477 60.5416 123.649 60.7762 123.992 60.9566C124.352 61.137 124.849 61.2994 125.48 61.4437L128.186 62.0662C129.991 62.4812 131.335 63.0946 132.219 63.9066C133.103 64.7004 133.545 65.792 133.545 67.1813C133.545 68.5345 133.202 69.6621 132.517 70.5643C131.849 71.4664 130.929 72.143 129.756 72.594C128.583 73.0451 127.257 73.2706 125.778 73.2706C124.605 73.2706 123.459 73.1534 122.341 72.9188C121.24 72.6843 120.23 72.3505 119.309 71.9174C118.389 71.4664 117.595 70.9341 116.928 70.3207L119.309 66.6671C119.797 67.1362 120.392 67.5602 121.096 67.9391C121.799 68.2999 122.548 68.5886 123.342 68.8051C124.136 69.0216 124.903 69.1299 125.642 69.1299C126.166 69.1299 126.59 69.0848 126.914 68.9946C127.257 68.8863 127.501 68.742 127.645 68.5615C127.789 68.3811 127.862 68.1646 127.862 67.912C127.862 67.6053 127.744 67.3617 127.51 67.1813C127.275 66.9828 126.833 66.8114 126.184 66.6671L123.207 65.9905C122.232 65.774 121.33 65.4763 120.5 65.0974C119.67 64.7185 119.003 64.1952 118.498 63.5277C118.01 62.842 117.767 61.9489 117.767 60.8483C117.767 59.6756 118.083 58.6381 118.714 57.736C119.346 56.8339 120.266 56.1302 121.475 55.625C122.683 55.1198 124.136 54.8672 125.832 54.8672ZM141.46 55.1379V73H135.939V55.1379H141.46ZM161.979 55.1379L155.809 73H149.259L143.089 55.1379H148.853L151.722 65.3951L152.642 68.8863L153.508 65.4492L156.404 55.1379H161.979ZM163.611 73V55.1379H178.009V59.2786H169.132V62.1745H176.223V66.0175H169.132V68.8592H178.361V73H163.611Z" fill="#FFD14A"/>
<path d="M59.1674 106.444H53.077V109.318H57.8843V111.217H53.077V115.836H50.7161V104.545H59.1674V106.444ZM65.9502 104.374C67.0679 104.374 68.0316 104.607 68.8414 105.075C69.6512 105.543 70.2728 106.21 70.7062 107.077C71.151 107.943 71.3734 108.981 71.3734 110.19C71.3734 111.399 71.151 112.437 70.7062 113.304C70.2728 114.171 69.6512 114.838 68.8414 115.306C68.0316 115.773 67.0679 116.007 65.9502 116.007C64.8325 116.007 63.863 115.773 63.0418 115.306C62.2321 114.838 61.6048 114.171 61.16 113.304C60.7266 112.437 60.5099 111.399 60.5099 110.19C60.5099 108.981 60.7266 107.943 61.16 107.077C61.6048 106.21 62.2321 105.543 63.0418 105.075C63.863 104.607 64.8325 104.374 65.9502 104.374ZM65.9502 106.307C65.3115 106.307 64.7697 106.455 64.3249 106.752C63.8801 107.048 63.538 107.487 63.2985 108.069C63.0703 108.639 62.9563 109.346 62.9563 110.19C62.9563 111.023 63.0703 111.73 63.2985 112.312C63.538 112.893 63.8801 113.332 64.3249 113.629C64.7697 113.926 65.3115 114.074 65.9502 114.074C66.5775 114.074 67.1135 113.926 67.5583 113.629C68.0031 113.332 68.3396 112.893 68.5677 112.312C68.8072 111.73 68.9269 111.023 68.9269 110.19C68.9269 109.346 68.8072 108.639 68.5677 108.069C68.3396 107.487 68.0031 107.048 67.5583 106.752C67.1135 106.455 66.5775 106.307 65.9502 106.307ZM78.7334 104.545C80.0108 104.545 81.0144 104.853 81.7444 105.469C82.4743 106.084 82.8393 106.911 82.8393 107.949C82.8393 109.056 82.4743 109.905 81.7444 110.498C81.0144 111.08 80.0165 111.371 78.7505 111.371L78.511 111.508H76.0817V115.836H73.755V104.545H78.7334ZM78.4596 109.711C79.1212 109.711 79.6116 109.58 79.9309 109.318C80.2617 109.044 80.4271 108.628 80.4271 108.069C80.4271 107.51 80.2617 107.1 79.9309 106.837C79.6116 106.563 79.1212 106.427 78.4596 106.427H76.0817V109.711H78.4596ZM79.8454 110.207L83.5065 115.836H80.8548L77.8267 110.892L79.8454 110.207ZM95.2656 115.836L90.0135 111.764V110.259H93.0074C93.5548 110.259 94.0053 110.145 94.3589 109.917C94.7125 109.689 94.9463 109.352 95.0603 108.907H90.0135L89.9964 107.402H95.0432C94.9292 106.968 94.6953 106.638 94.3418 106.409C93.9996 106.181 93.5548 106.067 93.0074 106.067L90.0135 106.05V104.545H98.6016V106.067H95.8815C96.1096 106.17 96.2978 106.341 96.4461 106.581C96.6057 106.809 96.7198 107.082 96.7882 107.402H98.6016V108.907H96.8395C96.7597 109.398 96.5772 109.842 96.2921 110.242C96.0069 110.641 95.6306 110.966 95.163 111.217C94.7067 111.468 94.1764 111.61 93.5719 111.645H92.7165L98.3108 115.836H95.2656ZM106.052 116.007C104.774 116.007 103.725 115.773 102.904 115.306C102.094 114.827 101.529 114.114 101.21 113.167L104.392 111.85C104.404 112.249 104.472 112.563 104.597 112.791C104.723 113.019 104.894 113.179 105.111 113.27C105.339 113.35 105.578 113.39 105.829 113.39C106.08 113.39 106.297 113.35 106.479 113.27C106.673 113.179 106.821 113.047 106.924 112.876C107.027 112.705 107.078 112.506 107.078 112.277C107.078 112.015 107.021 111.81 106.907 111.662C106.804 111.513 106.662 111.411 106.479 111.354C106.297 111.285 106.086 111.251 105.846 111.251C105.687 111.251 105.544 111.257 105.419 111.268C105.305 111.28 105.168 111.297 105.008 111.319V109.198C105.099 109.209 105.191 109.221 105.282 109.232C105.373 109.232 105.487 109.232 105.624 109.232C106.046 109.232 106.354 109.141 106.548 108.959C106.742 108.776 106.839 108.48 106.839 108.069C106.839 107.727 106.742 107.464 106.548 107.282C106.365 107.088 106.109 106.991 105.778 106.991C105.424 106.991 105.122 107.1 104.871 107.316C104.632 107.522 104.495 107.904 104.461 108.462L101.432 107.487C101.524 106.803 101.78 106.233 102.202 105.777C102.636 105.32 103.177 104.972 103.828 104.733C104.489 104.493 105.219 104.374 106.017 104.374C106.918 104.374 107.677 104.499 108.293 104.75C108.92 105.001 109.393 105.36 109.713 105.828C110.043 106.295 110.209 106.866 110.209 107.539C110.209 108.052 110.123 108.474 109.952 108.805C109.793 109.135 109.587 109.398 109.336 109.592C109.085 109.785 108.846 109.928 108.618 110.019C108.39 110.099 108.213 110.139 108.087 110.139V110.207C108.224 110.207 108.418 110.236 108.669 110.293C108.931 110.35 109.194 110.458 109.456 110.618C109.73 110.778 109.958 111.017 110.14 111.337C110.334 111.645 110.431 112.055 110.431 112.568C110.431 113.275 110.237 113.891 109.85 114.416C109.462 114.929 108.937 115.323 108.276 115.596C107.614 115.87 106.873 116.007 106.052 116.007ZM117.286 115.836V113.526H111.777V111.388C111.914 111.137 112.091 110.835 112.308 110.481C112.536 110.128 112.804 109.717 113.112 109.249L116.26 104.545H120.331V111.217H121.939V113.526H120.331V115.836H117.286ZM114.446 111.217H117.337V108.069C117.337 107.875 117.337 107.67 117.337 107.453C117.349 107.225 117.36 106.991 117.372 106.752H117.337C117.223 106.968 117.104 107.191 116.978 107.419C116.853 107.636 116.727 107.835 116.602 108.018L114.925 110.515C114.857 110.629 114.783 110.743 114.703 110.858C114.623 110.972 114.537 111.091 114.446 111.217ZM127.297 104.374C128.369 104.374 129.265 104.585 129.983 105.007C130.702 105.429 131.243 106.067 131.608 106.923C131.973 107.767 132.156 108.839 132.156 110.139C132.156 111.542 131.939 112.677 131.506 113.543C131.084 114.399 130.502 115.026 129.761 115.425C129.031 115.813 128.21 116.007 127.297 116.007C126.305 116.007 125.438 115.819 124.697 115.442C123.955 115.055 123.397 114.433 123.02 113.578L126.117 112.414C126.185 112.745 126.316 113.002 126.51 113.184C126.716 113.355 126.995 113.441 127.349 113.441C127.622 113.441 127.862 113.39 128.067 113.287C128.284 113.173 128.466 113.013 128.615 112.808C128.763 112.591 128.871 112.323 128.94 112.004C129.019 111.684 129.059 111.314 129.059 110.892C129.059 110.835 129.059 110.783 129.059 110.738C129.059 110.692 129.059 110.635 129.059 110.567H128.991C128.877 110.84 128.689 111.074 128.426 111.268C128.164 111.451 127.862 111.593 127.52 111.696C127.177 111.787 126.818 111.833 126.442 111.833C125.746 111.833 125.124 111.69 124.577 111.405C124.041 111.108 123.613 110.698 123.294 110.173C122.986 109.637 122.832 109.016 122.832 108.308C122.832 107.487 123.02 106.786 123.397 106.204C123.773 105.623 124.298 105.172 124.971 104.853C125.643 104.533 126.419 104.374 127.297 104.374ZM127.297 106.974C126.909 106.974 126.596 107.082 126.356 107.299C126.117 107.516 125.997 107.824 125.997 108.223C125.997 108.599 126.117 108.89 126.356 109.095C126.607 109.301 126.921 109.403 127.297 109.403C127.548 109.403 127.771 109.358 127.964 109.267C128.158 109.164 128.312 109.021 128.426 108.839C128.552 108.656 128.615 108.44 128.615 108.189C128.615 107.938 128.552 107.721 128.426 107.539C128.312 107.356 128.158 107.219 127.964 107.128C127.771 107.025 127.548 106.974 127.297 106.974ZM137.839 104.374C138.911 104.374 139.807 104.585 140.525 105.007C141.244 105.429 141.785 106.067 142.15 106.923C142.515 107.767 142.698 108.839 142.698 110.139C142.698 111.542 142.481 112.677 142.048 113.543C141.626 114.399 141.044 115.026 140.303 115.425C139.573 115.813 138.752 116.007 137.839 116.007C136.847 116.007 135.98 115.819 135.239 115.442C134.498 115.055 133.939 114.433 133.562 113.578L136.659 112.414C136.727 112.745 136.858 113.002 137.052 113.184C137.258 113.355 137.537 113.441 137.891 113.441C138.164 113.441 138.404 113.39 138.609 113.287C138.826 113.173 139.008 113.013 139.157 112.808C139.305 112.591 139.413 112.323 139.482 112.004C139.561 111.684 139.601 111.314 139.601 110.892C139.601 110.835 139.601 110.783 139.601 110.738C139.601 110.692 139.601 110.635 139.601 110.567H139.533C139.419 110.84 139.231 111.074 138.968 111.268C138.706 111.451 138.404 111.593 138.062 111.696C137.72 111.787 137.36 111.833 136.984 111.833C136.288 111.833 135.667 111.69 135.119 111.405C134.583 111.108 134.155 110.698 133.836 110.173C133.528 109.637 133.374 109.016 133.374 108.308C133.374 107.487 133.562 106.786 133.939 106.204C134.315 105.623 134.84 105.172 135.513 104.853C136.186 104.533 136.961 104.374 137.839 104.374ZM137.839 106.974C137.451 106.974 137.138 107.082 136.898 107.299C136.659 107.516 136.539 107.824 136.539 108.223C136.539 108.599 136.659 108.89 136.898 109.095C137.149 109.301 137.463 109.403 137.839 109.403C138.09 109.403 138.313 109.358 138.506 109.267C138.7 109.164 138.854 109.021 138.968 108.839C139.094 108.656 139.157 108.44 139.157 108.189C139.157 107.938 139.094 107.721 138.968 107.539C138.854 107.356 138.7 107.219 138.506 107.128C138.313 107.025 138.09 106.974 137.839 106.974ZM150.958 103.758L146.322 117.033H143.123L147.759 103.758H150.958ZM158.522 109.865V112.568H152.038V109.865H158.522Z" fill="black"/>
<path d="M58.0003 105.608H51.9099V108.482H56.7172V110.381H51.9099V115H49.549V103.709H58.0003V105.608ZM64.783 103.538C65.9007 103.538 66.8645 103.772 67.6742 104.239C68.484 104.707 69.1056 105.374 69.539 106.241C69.9838 107.108 70.2062 108.145 70.2062 109.354C70.2062 110.563 69.9838 111.601 69.539 112.468C69.1056 113.335 68.484 114.002 67.6742 114.47C66.8645 114.937 65.9007 115.171 64.783 115.171C63.6653 115.171 62.6959 114.937 61.8747 114.47C61.0649 114.002 60.4376 113.335 59.9928 112.468C59.5594 111.601 59.3427 110.563 59.3427 109.354C59.3427 108.145 59.5594 107.108 59.9928 106.241C60.4376 105.374 61.0649 104.707 61.8747 104.239C62.6959 103.772 63.6653 103.538 64.783 103.538ZM64.783 105.471C64.1443 105.471 63.6026 105.619 63.1578 105.916C62.713 106.212 62.3708 106.651 62.1313 107.233C61.9032 107.803 61.7891 108.51 61.7891 109.354C61.7891 110.187 61.9032 110.894 62.1313 111.476C62.3708 112.057 62.713 112.497 63.1578 112.793C63.6026 113.09 64.1443 113.238 64.783 113.238C65.4103 113.238 65.9463 113.09 66.3912 112.793C66.836 112.497 67.1724 112.057 67.4005 111.476C67.64 110.894 67.7598 110.187 67.7598 109.354C67.7598 108.51 67.64 107.803 67.4005 107.233C67.1724 106.651 66.836 106.212 66.3912 105.916C65.9463 105.619 65.4103 105.471 64.783 105.471ZM77.5662 103.709C78.8436 103.709 79.8473 104.017 80.5772 104.633C81.3071 105.249 81.6721 106.075 81.6721 107.113C81.6721 108.22 81.3071 109.069 80.5772 109.662C79.8473 110.244 78.8493 110.535 77.5833 110.535L77.3438 110.672H74.9145V115H72.5878V103.709H77.5662ZM77.2925 108.875C77.954 108.875 78.4444 108.744 78.7638 108.482C79.0945 108.208 79.2599 107.792 79.2599 107.233C79.2599 106.674 79.0945 106.264 78.7638 106.001C78.4444 105.728 77.954 105.591 77.2925 105.591H74.9145V108.875H77.2925ZM78.6782 109.372L82.3393 115H79.6876L76.6595 110.056L78.6782 109.372ZM94.0984 115L88.8463 110.928V109.423H91.8402C92.3877 109.423 92.8382 109.309 93.1917 109.081C93.5453 108.853 93.7791 108.516 93.8931 108.071H88.8463L88.8292 106.566H93.876C93.762 106.132 93.5282 105.802 93.1746 105.574C92.8325 105.345 92.3877 105.231 91.8402 105.231L88.8463 105.214V103.709H97.4345V105.231H94.7143C94.9424 105.334 95.1306 105.505 95.2789 105.745C95.4386 105.973 95.5526 106.246 95.621 106.566H97.4345V108.071H95.6724C95.5925 108.562 95.41 109.007 95.1249 109.406C94.8398 109.805 94.4634 110.13 93.9958 110.381C93.5396 110.632 93.0092 110.774 92.4048 110.809H91.5494L97.1436 115H94.0984ZM105.131 115.171C103.854 115.171 102.805 114.937 101.984 114.47C101.174 113.991 100.609 113.278 100.29 112.331L103.472 111.014C103.483 111.413 103.552 111.727 103.677 111.955C103.803 112.183 103.974 112.343 104.19 112.434C104.419 112.514 104.658 112.554 104.909 112.554C105.16 112.554 105.377 112.514 105.559 112.434C105.753 112.343 105.901 112.211 106.004 112.04C106.107 111.869 106.158 111.67 106.158 111.442C106.158 111.179 106.101 110.974 105.987 110.826C105.884 110.677 105.742 110.575 105.559 110.518C105.377 110.449 105.166 110.415 104.926 110.415C104.766 110.415 104.624 110.421 104.498 110.432C104.384 110.444 104.247 110.461 104.088 110.484V108.362C104.179 108.374 104.27 108.385 104.362 108.396C104.453 108.396 104.567 108.396 104.704 108.396C105.126 108.396 105.434 108.305 105.627 108.123C105.821 107.94 105.918 107.644 105.918 107.233C105.918 106.891 105.821 106.629 105.627 106.446C105.445 106.252 105.188 106.155 104.858 106.155C104.504 106.155 104.202 106.264 103.951 106.48C103.711 106.686 103.575 107.068 103.54 107.627L100.512 106.651C100.603 105.967 100.86 105.397 101.282 104.941C101.715 104.484 102.257 104.136 102.907 103.897C103.569 103.657 104.299 103.538 105.097 103.538C105.998 103.538 106.757 103.663 107.373 103.914C108 104.165 108.473 104.524 108.792 104.992C109.123 105.46 109.289 106.03 109.289 106.703C109.289 107.216 109.203 107.638 109.032 107.969C108.872 108.299 108.667 108.562 108.416 108.756C108.165 108.95 107.926 109.092 107.698 109.183C107.469 109.263 107.293 109.303 107.167 109.303V109.372C107.304 109.372 107.498 109.4 107.749 109.457C108.011 109.514 108.274 109.622 108.536 109.782C108.81 109.942 109.038 110.181 109.22 110.501C109.414 110.809 109.511 111.219 109.511 111.732C109.511 112.44 109.317 113.055 108.929 113.58C108.542 114.093 108.017 114.487 107.355 114.76C106.694 115.034 105.953 115.171 105.131 115.171ZM116.366 115V112.69H110.857V110.552C110.994 110.301 111.171 109.999 111.387 109.645C111.615 109.292 111.884 108.881 112.191 108.413L115.339 103.709H119.411V110.381H121.019V112.69H119.411V115H116.366ZM113.526 110.381H116.417V107.233C116.417 107.039 116.417 106.834 116.417 106.617C116.428 106.389 116.44 106.155 116.451 105.916H116.417C116.303 106.132 116.183 106.355 116.058 106.583C115.932 106.8 115.807 106.999 115.681 107.182L114.005 109.679C113.936 109.793 113.862 109.908 113.782 110.022C113.703 110.136 113.617 110.255 113.526 110.381ZM126.377 103.538C127.449 103.538 128.344 103.749 129.063 104.171C129.781 104.593 130.323 105.231 130.688 106.087C131.053 106.931 131.236 108.003 131.236 109.303C131.236 110.706 131.019 111.841 130.585 112.708C130.163 113.563 129.582 114.19 128.84 114.589C128.111 114.977 127.289 115.171 126.377 115.171C125.385 115.171 124.518 114.983 123.777 114.607C123.035 114.219 122.476 113.597 122.1 112.742L125.197 111.578C125.265 111.909 125.396 112.166 125.59 112.348C125.795 112.519 126.075 112.605 126.428 112.605C126.702 112.605 126.942 112.554 127.147 112.451C127.364 112.337 127.546 112.177 127.694 111.972C127.843 111.755 127.951 111.487 128.019 111.168C128.099 110.848 128.139 110.478 128.139 110.056C128.139 109.999 128.139 109.947 128.139 109.902C128.139 109.856 128.139 109.799 128.139 109.731H128.071C127.957 110.004 127.768 110.238 127.506 110.432C127.244 110.615 126.942 110.757 126.599 110.86C126.257 110.951 125.898 110.997 125.522 110.997C124.826 110.997 124.204 110.854 123.657 110.569C123.121 110.273 122.693 109.862 122.374 109.337C122.066 108.801 121.912 108.18 121.912 107.473C121.912 106.651 122.1 105.95 122.476 105.368C122.853 104.787 123.377 104.336 124.05 104.017C124.723 103.697 125.499 103.538 126.377 103.538ZM126.377 106.138C125.989 106.138 125.676 106.246 125.436 106.463C125.197 106.68 125.077 106.988 125.077 107.387C125.077 107.763 125.197 108.054 125.436 108.259C125.687 108.465 126.001 108.567 126.377 108.567C126.628 108.567 126.85 108.522 127.044 108.431C127.238 108.328 127.392 108.185 127.506 108.003C127.632 107.82 127.694 107.604 127.694 107.353C127.694 107.102 127.632 106.885 127.506 106.703C127.392 106.52 127.238 106.383 127.044 106.292C126.85 106.189 126.628 106.138 126.377 106.138ZM136.919 103.538C137.991 103.538 138.886 103.749 139.605 104.171C140.323 104.593 140.865 105.231 141.23 106.087C141.595 106.931 141.778 108.003 141.778 109.303C141.778 110.706 141.561 111.841 141.128 112.708C140.706 113.563 140.124 114.19 139.383 114.589C138.653 114.977 137.831 115.171 136.919 115.171C135.927 115.171 135.06 114.983 134.319 114.607C133.577 114.219 133.018 113.597 132.642 112.742L135.739 111.578C135.807 111.909 135.938 112.166 136.132 112.348C136.337 112.519 136.617 112.605 136.97 112.605C137.244 112.605 137.484 112.554 137.689 112.451C137.906 112.337 138.088 112.177 138.236 111.972C138.385 111.755 138.493 111.487 138.561 111.168C138.641 110.848 138.681 110.478 138.681 110.056C138.681 109.999 138.681 109.947 138.681 109.902C138.681 109.856 138.681 109.799 138.681 109.731H138.613C138.499 110.004 138.31 110.238 138.048 110.432C137.786 110.615 137.484 110.757 137.141 110.86C136.799 110.951 136.44 110.997 136.064 110.997C135.368 110.997 134.746 110.854 134.199 110.569C133.663 110.273 133.235 109.862 132.916 109.337C132.608 108.801 132.454 108.18 132.454 107.473C132.454 106.651 132.642 105.95 133.018 105.368C133.395 104.787 133.919 104.336 134.592 104.017C135.265 103.697 136.041 103.538 136.919 103.538ZM136.919 106.138C136.531 106.138 136.218 106.246 135.978 106.463C135.739 106.68 135.619 106.988 135.619 107.387C135.619 107.763 135.739 108.054 135.978 108.259C136.229 108.465 136.543 108.567 136.919 108.567C137.17 108.567 137.392 108.522 137.586 108.431C137.78 108.328 137.934 108.185 138.048 108.003C138.174 107.82 138.236 107.604 138.236 107.353C138.236 107.102 138.174 106.885 138.048 106.703C137.934 106.52 137.78 106.383 137.586 106.292C137.392 106.189 137.17 106.138 136.919 106.138ZM150.038 102.922L145.402 116.198H142.203L146.839 102.922H150.038ZM157.602 109.029V111.732H151.118V109.029H157.602Z" fill="#FFD14A"/>
<defs>
<filter id="filter0_d_365_33516" x="0.837365" y="-58" width="212.325" height="212.325" filterUnits="userSpaceOnUse" color-interpolation-filters="sRGB">
<feFlood flood-opacity="0" result="BackgroundImageFix"/>
<feColorMatrix in="SourceAlpha" type="matrix" values="0 0 0 0 0 0 0 0 0 0 0 0 0 0 0 0 0 0 127 0" result="hardAlpha"/>
<feOffset dy="4.16264"/>
<feGaussianBlur stdDeviation="2.08132"/>
<feComposite in2="hardAlpha" operator="out"/>
<feColorMatrix type="matrix" values="0 0 0 0 0 0 0 0 0 0 0 0 0 0 0 0 0 0 0.25 0"/>
<feBlend mode="normal" in2="BackgroundImageFix" result="effect1_dropShadow_365_33516"/>
<feBlend mode="normal" in="SourceGraphic" in2="effect1_dropShadow_365_33516" result="shape"/>
</filter>
<linearGradient id="paint0_linear_365_33516" x1="77.7313" y1="-53.8054" x2="136.304" y2="141.668" gradientUnits="userSpaceOnUse">
<stop stop-color="#AD4394"/>
<stop offset="0.01" stop-color="#A53F92"/>
<stop offset="0.0459998" stop-color="#862E8B"/>
<stop offset="0.07" stop-color="#862E8B"/>
<stop offset="0.14" stop-color="#6A2085"/>
<stop offset="0.22" stop-color="#541480"/>
<stop offset="0.31" stop-color="#430B7D"/>
<stop offset="0.42" stop-color="#38057A"/>
<stop offset="0.57" stop-color="#310178"/>
<stop offset="0.85" stop-color="#862E8B"/>
<stop offset="0.896" stop-color="#AD4394"/>
<stop offset="1" stop-color="#2F0078"/>
</linearGradient>
</defs>
</svg>
