<svg width="29" height="15" viewBox="0 0 29 15" fill="none" xmlns="http://www.w3.org/2000/svg">
<path d="M28.6677 6.22157C28.6674 6.22123 28.6671 6.22084 28.6667 6.2205L22.7476 0.329871C22.3041 -0.111416 21.5869 -0.109774 21.1455 0.333723C20.7041 0.777162 20.7058 1.4944 21.1493 1.93575L25.1234 5.89062H1.13281C0.50716 5.89062 0 6.39778 0 7.02344C0 7.64909 0.50716 8.15625 1.13281 8.15625H25.1233L21.1493 12.1111C20.7059 12.5525 20.7042 13.2697 21.1455 13.7131C21.5869 14.1567 22.3042 14.1582 22.7476 13.717L28.6668 7.82637C28.6671 7.82603 28.6674 7.82564 28.6678 7.8253C29.1115 7.38248 29.1101 6.66292 28.6677 6.22157Z" fill="#E01F26"/>
</svg>
